<?xml version="1.0" encoding="utf-8"?>
<!-- Generator: Adobe Illustrator 15.0.0, SVG Export Plug-In . SVG Version: 6.00 Build 0)  -->
<!DOCTYPE svg PUBLIC "-//W3C//DTD SVG 1.1//EN" "http://www.w3.org/Graphics/SVG/1.1/DTD/svg11.dtd">
<svg version="1.1" id="Layer_1" xmlns="http://www.w3.org/2000/svg" xmlns:xlink="http://www.w3.org/1999/xlink" x="0px" y="0px"
	 width="1600px" height="120px" viewBox="0 0 1600 120" enable-background="new 0 0 1600 120" xml:space="preserve">
<g opacity="0.5">
	<defs>
		<rect id="SVGID_1_" opacity="0.5" width="1600" height="120"/>
	</defs>
	<clipPath id="SVGID_2_">
		<use xlink:href="#SVGID_1_"  overflow="visible"/>
	</clipPath>
	<g opacity="0.3" clip-path="url(#SVGID_2_)">
		<g>
			<defs>
				<rect id="SVGID_3_" x="1002.64" y="13.518" width="570.17" height="585.16"/>
			</defs>
			<clipPath id="SVGID_4_">
				<use xlink:href="#SVGID_3_"  overflow="visible"/>
			</clipPath>
			<path clip-path="url(#SVGID_4_)" fill="#DFEAEE" d="M1265.044,595.788c111.93-19.065,190.861-78.334,227.279-187.363
				c21.678-64.906,17.424-129.682-11.764-191.371c-41.084-86.832-110.26-138.877-205.295-152.769
				c-94.057-13.749-172.592,20.431-238.74,87.052c42.596-83.198,174.361-172.038,328.805-124.523
				c157.313,48.4,243.752,216.211,192.895,372.421C1508.792,551.071,1353.341,613.37,1265.044,595.788"/>
			<path clip-path="url(#SVGID_4_)" fill="#DFEAEE" d="M1171.677,89.604c127.32-39.193,264.369,35.132,305.02,161.842
				c41.619,129.72-28.402,265.298-160.096,309.99c-86.154,29.237-227.287-7.858-248.01-65.463
				c108.08,65.021,211.625,62.185,300.904-30.488c65.639-68.133,78.973-152.914,40.668-239.798
				C1366.058,125.644,1283.865,84.156,1171.677,89.604"/>
			<path clip-path="url(#SVGID_4_)" fill="#DFEAEE" d="M1366.013,431.085c-18.85,60.011-136.588,100.951-216.486,77.81
				c-101.805-29.488-165.998-139.128-141.768-239.315c26.072-107.802,122.889-160.085,188.066-154.031
				c-83.785,24.598-135.332,77.872-146.178,165.18c-6.605,53.174,10.002,100.872,44.988,140.685
				C1160.408,496.258,1276.367,511.225,1366.013,431.085"/>
		</g>
	</g>
	<g opacity="0.2" clip-path="url(#SVGID_2_)">
		<g>
			<defs>
				<rect id="SVGID_5_" x="669.847" y="-97.432" width="474.723" height="464.94"/>
			</defs>
			<clipPath id="SVGID_6_">
				<use xlink:href="#SVGID_5_"  overflow="visible"/>
			</clipPath>
			<path clip-path="url(#SVGID_6_)" fill="#DFEAEE" d="M669.851,159.996c32.587,87.112,92.435,141.48,185.761,153.977
				c55.56,7.438,107.017-5.965,152.151-38.955c63.525-46.433,94.736-110.107,91.268-188.707
				c-3.434-77.787-43.035-135.704-106.826-178.654c73.5,21.447,165.279,113.765,150.852,245.339
				c-14.695,134.021-136.383,229.421-269.894,212.58C743.39,349.204,669.313,233.742,669.851,159.996"/>
			<path clip-path="url(#SVGID_6_)" fill="#DFEAEE" d="M1062.699,6.875c51.15,96.392,12.475,218.105-83.201,270.336
				c-97.948,53.472-217.815,18.032-274.066-81.031c-36.797-64.806-28.702-184.068,14.449-209.618
				c-35.656,96.973-17.417,179.84,70.898,237.387c64.929,42.308,135.192,39.969,199.19-4.236
				C1063.658,168.812,1084.369,96.293,1062.699,6.875"/>
			<path clip-path="url(#SVGID_6_)" fill="#DFEAEE" d="M817.917,215.845c-51.184-5.917-102.266-94.331-95.959-162.177
				c8.035-86.448,86.35-154.988,170.687-150.933c90.746,4.362,147.729,74.195,152.902,127.566
				c-32.701-63.617-83.504-96.876-155.416-92.148c-43.798,2.879-79.612,23.591-106.251,57.874
				C733.801,60.475,739.629,156.072,817.917,215.845"/>
		</g>
	</g>
	<g opacity="0.5" clip-path="url(#SVGID_2_)">
		<g>
			<defs>
				<rect id="SVGID_7_" x="406.469" y="37.348" width="480.074" height="465.84"/>
			</defs>
			<clipPath id="SVGID_8_">
				<use xlink:href="#SVGID_7_"  overflow="visible"/>
			</clipPath>
			<path clip-path="url(#SVGID_8_)" fill="#DFEAEE" d="M849.122,399.569c29.563-88.184,17.33-168.109-47.284-236.602
				c-38.465-40.775-86.873-62.778-142.708-65.586c-78.588-3.954-142.938,25.84-189.754,89.071
				c-46.333,62.577-52.058,132.506-29.568,206.045c-43.575-62.955-56.705-192.467,37.38-285.569
				c95.835-94.832,250.441-92.275,343.525,4.906C911.191,206.294,895.992,342.632,849.122,399.569"/>
			<path clip-path="url(#SVGID_8_)" fill="#DFEAEE" d="M447.558,271.034c20.99-107.085,127.697-177.253,234.906-157.552
				C792.221,133.651,862.993,236.68,844.28,349.054c-12.242,73.512-93.654,161.039-143.262,153.701
				c88.776-52.855,126.811-128.703,94.468-229.029c-23.778-73.759-79.823-116.202-157.372-122.183
				C548.818,144.658,487.052,187.935,447.558,271.034"/>
			<path clip-path="url(#SVGID_8_)" fill="#DFEAEE" d="M769.303,262.924c36.026,36.837,20.008,137.683-27.628,186.404
				c-60.694,62.079-164.693,65.98-227.642,9.707c-67.731-60.55-67.999-150.681-38.398-195.392
				c-14.675,70.008,3.832,127.842,62.662,169.467c35.83,25.354,76.693,31.826,118.977,21.98
				C736.765,436.581,792.456,358.663,769.303,262.924"/>
		</g>
	</g>
	<g opacity="0.4" clip-path="url(#SVGID_2_)">
		<g>
			<defs>
				<rect id="SVGID_9_" x="27.195" y="-46.582" width="478.834" height="466.89"/>
			</defs>
			<clipPath id="SVGID_10_">
				<use xlink:href="#SVGID_9_"  overflow="visible"/>
			</clipPath>
			<path clip-path="url(#SVGID_10_)" fill="#DFEAEE" d="M28.839,175.564C47.307,266.72,97.85,329.831,188.046,356.863
				c53.695,16.093,106.621,10.955,156.386-14.518c70.044-35.854,110.888-93.822,119.836-171.986
				c8.855-77.358-21.135-140.788-77.369-193.244c69.205,32.751,145.307,138.364,110.347,266.027
				C461.637,373.18,326.448,448.234,197.254,410.585C71.676,373.99,16.699,248.307,28.839,175.564"/>
			<path clip-path="url(#SVGID_10_)" fill="#DFEAEE" d="M440.893,86.194c35.341,103.242-22.014,217.35-124.719,253.868
				C211.029,377.448,98.237,323.582,58.282,216.899c-26.139-69.791,0.631-186.291,47.264-204.73
				c-50.475,90.151-45.509,174.856,32.646,245.587c57.46,52.002,127.216,60.753,197.373,27.174
				C416.349,246.264,448.218,177.909,440.893,86.194"/>
			<path clip-path="url(#SVGID_10_)" fill="#DFEAEE" d="M166.269,254.026c-49.615-13.9-86.143-109.253-69.235-175.261
				C118.578-5.34,206.706-60.698,289.353-43.417c88.928,18.593,134.207,96.526,130.915,150.045
				C397.989,38.657,353.054-2.185,281.293-8.837C237.588-12.888,198.96,1.928,167.258,31.59
				C107.659,87.352,98.365,182.674,166.269,254.026"/>
		</g>
	</g>
</g>
</svg>
