<?xml version="1.0" encoding="utf-8"?>
<!-- Generator: Adobe Illustrator 15.0.0, SVG Export Plug-In . SVG Version: 6.00 Build 0)  -->
<!DOCTYPE svg PUBLIC "-//W3C//DTD SVG 1.1//EN" "http://www.w3.org/Graphics/SVG/1.1/DTD/svg11.dtd">
<svg version="1.1" id="Layer_1" xmlns="http://www.w3.org/2000/svg" xmlns:xlink="http://www.w3.org/1999/xlink" x="0px" y="0px"
	 width="34.656px" height="32px" viewBox="0 0 34.656 32" enable-background="new 0 0 34.656 32" xml:space="preserve">
<g>
	<g>
		<defs>
			<path id="SVGID_1_" d="M127.752,13.03c0,1.923,0.714,3.636,2.245,4.275c0.251,0.104,0.477,0.002,0.549-0.281
				c0.05-0.195,0.17-0.691,0.224-0.898c0.072-0.279,0.045-0.378-0.158-0.622c-0.44-0.531-0.722-1.22-0.722-2.194
				c0-2.827,2.07-5.358,5.395-5.358c2.942,0,4.56,1.836,4.56,4.288c0,3.226-1.396,5.946-3.474,5.946
				c-1.146,0-2.006-0.967-1.729-2.153c0.328-1.417,0.967-2.946,0.967-3.97c0-0.915-0.479-1.68-1.478-1.68
				c-1.172,0-2.113,1.237-2.113,2.896c0,1.056,0.351,1.771,0.351,1.771s-1.199,5.188-1.41,6.096c-0.19,0.828-0.22,1.737-0.192,2.504
				c0.081,0.69,0.748,1.252,1.326,0.496c0.407-0.666,0.846-1.504,1.071-2.346c0.135-0.497,0.771-3.074,0.771-3.074
				c0.381,0.741,1.493,1.396,2.677,1.396c3.522,0,5.913-3.279,5.913-7.668c0-3.317-2.754-6.409-6.938-6.409
				C130.378,6.041,127.752,9.853,127.752,13.03"/>
		</defs>
		<clipPath id="SVGID_2_">
			<use xlink:href="#SVGID_1_"  overflow="visible"/>
		</clipPath>
		
			<linearGradient id="SVGID_3_" gradientUnits="userSpaceOnUse" x1="-760.8684" y1="-686.7744" x2="-759.8684" y2="-686.7744" gradientTransform="matrix(0 32 -32 0 -21841.6406 24347.0547)">
			<stop  offset="0" style="stop-color:#FFFFFF"/>
			<stop  offset="1" style="stop-color:#E1E2E3"/>
		</linearGradient>
		<rect x="127.752" y="6.041" clip-path="url(#SVGID_2_)" fill="url(#SVGID_3_)" width="14.771" height="18.857"/>
	</g>
</g>
<g id="Layer_18">
	<path fill="#36322E" d="M135.137,0.727c-8.033,0-14.546,6.513-14.546,14.546c0,8.034,6.513,14.545,14.546,14.545
		c8.032,0,14.546-6.512,14.546-14.545C149.683,7.24,143.17,0.727,135.137,0.727 M136.608,20.119c-1.184,0-2.296-0.653-2.677-1.396
		c0,0-0.638,2.578-0.771,3.075c-0.227,0.841-0.664,1.681-1.072,2.345c-0.578,0.756-1.246,0.194-1.324-0.494
		c-0.027-0.769,0.001-1.678,0.191-2.504c0.21-0.908,1.41-6.097,1.41-6.097s-0.351-0.714-0.351-1.771c0-1.657,0.94-2.896,2.113-2.896
		c0.996,0,1.479,0.764,1.479,1.679c0,1.024-0.641,2.554-0.968,3.971c-0.274,1.188,0.583,2.154,1.729,2.154
		c2.077,0,3.474-2.723,3.474-5.948c0-2.452-1.615-4.288-4.559-4.288c-3.324,0-5.395,2.531-5.395,5.358
		c0,0.976,0.28,1.662,0.723,2.194c0.202,0.245,0.229,0.343,0.157,0.623c-0.055,0.207-0.175,0.702-0.225,0.898
		c-0.071,0.283-0.298,0.385-0.549,0.279c-1.531-0.638-2.244-2.351-2.244-4.274c0-3.178,2.626-6.988,7.832-6.988
		c4.185,0,6.938,3.091,6.938,6.408C142.521,16.839,140.131,20.119,136.608,20.119"/>
</g>
<g id="Layer_17">
	<path fill="#36322E" d="M135.137-0.728c-8.837,0-16,7.163-16,16c0,8.837,7.163,16,16,16s16-7.162,16-16
		C151.137,6.436,143.974-0.728,135.137-0.728 M135.137,29.816c-8.033,0-14.546-6.512-14.546-14.544s6.513-14.546,14.546-14.546
		c8.032,0,14.546,6.513,14.546,14.546S143.17,29.816,135.137,29.816"/>
</g>
<g id="Layer_16">
	<path fill="#60A6DA" d="M95.509,0.866c-8.032,0-14.545,6.512-14.545,14.545c0,8.032,6.513,14.546,14.545,14.546
		c8.033,0,14.547-6.514,14.547-14.546C110.055,7.378,103.542,0.866,95.509,0.866"/>
</g>
<g id="Layer_15">
	<path fill="#FFFFFF" d="M103.649,8.378c-0.684,0.414-1.439,0.712-2.245,0.866c-0.646-0.733-1.564-1.2-2.58-1.218
		c-1.952-0.032-3.535,1.618-3.535,3.686c0,0.293,0.031,0.579,0.092,0.854c-2.938-0.19-5.543-1.72-7.287-4.026
		c-0.304,0.553-0.479,1.198-0.479,1.891c0,1.31,0.625,2.472,1.573,3.158c-0.58-0.025-1.125-0.2-1.602-0.488v0.047
		c0,1.829,1.219,3.364,2.834,3.721c-0.296,0.084-0.607,0.128-0.931,0.126c-0.228-0.001-0.449-0.026-0.665-0.071
		c0.449,1.5,1.755,2.596,3.302,2.631c-1.21,1.004-2.732,1.603-4.39,1.6c-0.286-0.002-0.568-0.02-0.844-0.055
		c1.563,1.073,3.423,1.698,5.419,1.698c6.503,0.002,10.058-5.657,10.058-10.564c0-0.162-0.003-0.322-0.01-0.481
		c0.69-0.515,1.29-1.159,1.764-1.896c-0.634,0.286-1.313,0.475-2.028,0.555C102.825,9.959,103.386,9.24,103.649,8.378"/>
</g>
<g id="Layer_14">
	<path fill="#60A6DA" d="M95.51-0.589c-8.836,0-16,7.163-16,16c0,8.838,7.164,16,16,16c8.838,0,16-7.162,16-16
		C111.51,6.574,104.347-0.589,95.51-0.589 M95.51,29.956c-8.032,0-14.545-6.513-14.545-14.545c0-8.033,6.513-14.546,14.545-14.546
		c8.033,0,14.547,6.513,14.547,14.546C110.056,23.443,103.543,29.956,95.51,29.956"/>
</g>
<g id="Layer_13">
</g>
<g id="Layer_12">
</g>
<g id="Layer_11">
	<g>
		<path fill="#395A97" d="M56.363-0.518c-8.836,0-16,7.163-16,16c0,8.838,7.164,16,16,16c8.837,0,16-7.162,16-16
			C72.363,6.645,65.2-0.518,56.363-0.518 M56.363,30.027c-8.033,0-14.545-6.512-14.545-14.545c0-8.033,6.512-14.546,14.545-14.546
			s14.546,6.513,14.546,14.546C70.909,23.516,64.396,30.027,56.363,30.027"/>
		<path fill="#395A97" d="M56.363,0.937c-8.033,0-14.545,6.512-14.545,14.545c0,8.034,6.512,14.545,14.545,14.545
			s14.546-6.512,14.546-14.545C70.909,7.449,64.396,0.937,56.363,0.937"/>
		<path fill="#FFFFFF" d="M53.943,10.57v1.851h-1.877v3.061h1.877v9.235h3.034v-9.235h3.048l0.481-3.061h-3.529v-1.534
			c0-0.798,0.262-1.56,1.409-1.56h2.288V6.272h-3.252C54.689,6.272,53.943,8.073,53.943,10.57"/>
	</g>
</g>
<g id="Layer_10">
</g>
<g id="Layer_9">
</g>
<g id="Layer_8">
	<g>
		<path fill="#B92226" d="M174.625,0.589c-8.033,0-14.545,6.512-14.545,14.545c0,8.033,6.512,14.546,14.545,14.546
			s14.546-6.513,14.546-14.546C189.171,7.101,182.659,0.589,174.625,0.589"/>
		<path fill="#B92226" d="M174.625-0.866c-8.836,0-16,7.163-16,16c0,8.839,7.164,16,16,16c8.837,0,16-7.161,16-16
			C190.625,6.297,183.462-0.866,174.625-0.866 M174.625,29.68c-8.033,0-14.545-6.513-14.545-14.546
			c0-8.033,6.512-14.546,14.545-14.546s14.546,6.513,14.546,14.546C189.171,23.167,182.659,29.68,174.625,29.68"/>
		<polygon fill="#FFFFFF" points="169.57,23.374 169.568,7.374 184.955,15.402 		"/>
	</g>
</g>
<g id="Layer_7">
</g>
<g id="Layer_6">
</g>
<g id="Layer_5">
</g>
<g id="Layer_4">
	<g>
		<path fill="#027BB5" d="M214.114,0.451c-8.033,0-14.545,6.512-14.545,14.545s6.512,14.546,14.545,14.546
			s14.546-6.513,14.546-14.546S222.147,0.451,214.114,0.451"/>
		<path fill="#027BB5" d="M214.114-1.004c-8.836,0-16,7.163-16,16c0,8.836,7.164,16,16,16c8.837,0,16-7.164,16-16
			C230.114,6.159,222.951-1.004,214.114-1.004 M214.114,29.541c-8.033,0-14.545-6.512-14.545-14.545S206.081,0.45,214.114,0.45
			s14.546,6.513,14.546,14.546S222.147,29.541,214.114,29.541"/>
		<path fill="#FFFFFF" d="M212.791,14.996c0,2.884-2.338,5.222-5.222,5.222c-2.885,0-5.222-2.338-5.222-5.222
			c0-2.884,2.337-5.222,5.222-5.222C210.453,9.774,212.791,12.112,212.791,14.996"/>
		<path fill="#FFFFFF" d="M225.881,14.996c0,2.884-2.338,5.222-5.222,5.222s-5.222-2.338-5.222-5.222
			c0-2.884,2.338-5.222,5.222-5.222S225.881,12.112,225.881,14.996"/>
	</g>
</g>
<path fill="#2A607C" d="M0.345,16.013L8.64,31h22.906c1.524,0,2.762-1.238,2.762-2.764V3.762C34.308,2.237,33.071,1,31.547,1H8.668
	L0.345,16.013z"/>
<g>
	<path fill="#FFFFFF" d="M24.96,23.75h-3.127v-6.695c0-0.828-0.146-1.448-0.44-1.862c-0.294-0.413-0.764-0.62-1.404-0.62
		c-0.876,0-1.508,0.292-1.897,0.877c-0.39,0.584-0.585,1.553-0.585,2.907v5.394h-3.127V12.287h2.39l0.421,1.466h0.175
		c0.348-0.554,0.828-0.972,1.44-1.256c0.61-0.284,1.308-0.426,2.087-0.426c1.332,0,2.344,0.361,3.034,1.082
		c0.689,0.721,1.035,1.762,1.035,3.122L24.96,23.75L24.96,23.75z M17.946,9.949c-0.212,0-0.415,0.091-0.61,0.272
		c-0.193,0.181-0.337,0.456-0.425,0.825h-1.528c0.075-0.991,0.357-1.767,0.847-2.328c0.488-0.561,1.137-0.841,1.942-0.841
		c0.28,0,0.557,0.056,0.825,0.169c0.271,0.112,0.537,0.235,0.8,0.369c0.265,0.133,0.521,0.254,0.774,0.364
		c0.253,0.11,0.502,0.164,0.748,0.164c0.212,0,0.416-0.089,0.61-0.267c0.194-0.178,0.337-0.451,0.426-0.82h1.527
		c-0.075,0.991-0.36,1.767-0.855,2.328c-0.496,0.561-1.141,0.841-1.933,0.841c-0.281,0-0.557-0.057-0.826-0.169
		c-0.271-0.113-0.536-0.236-0.801-0.369c-0.263-0.134-0.521-0.257-0.773-0.369C18.441,10.005,18.192,9.949,17.946,9.949z"/>
</g>
</svg>
